<svg viewBox="0 0 48 48" fill="none" xmlns="http://www.w3.org/2000/svg" width="48" height="48">
  <defs>
    <linearGradient id="citalia-stroke" x1="8" y1="10" x2="40" y2="42" gradientUnits="userSpaceOnUse">
      <stop offset="0" stop-color="#E08BB4" />
      <stop offset="0.5" stop-color="#D4669A" />
      <stop offset="1" stop-color="#8B5A7C" />
    </linearGradient>
    <linearGradient id="citalia-dot" x1="14" y1="20" x2="34" y2="32" gradientUnits="userSpaceOnUse">
      <stop offset="0" stop-color="#EDB088" />
      <stop offset="1" stop-color="#E8A87C" />
    </linearGradient>
  </defs>
  <rect x="16.5" y="5" width="4" height="8" rx="2" fill="#E8A87C" />
  <rect x="27.5" y="5" width="4" height="8" rx="2" fill="#E8A87C" />
  <path d="M38 11H16A6 6 0 0 0 10 17V35A6 6 0 0 0 16 41H38" stroke="url(#citalia-stroke)" stroke-width="5.5" stroke-linecap="round" stroke-linejoin="round" />
  <rect x="16" y="22" width="4.4" height="4.4" rx="1.2" fill="url(#citalia-dot)" />
  <rect x="22" y="22" width="4.4" height="4.4" rx="1.2" fill="url(#citalia-dot)" />
  <rect x="28" y="22" width="4.4" height="4.4" rx="1.2" fill="url(#citalia-dot)" />
  <rect x="16" y="29" width="4.4" height="4.4" rx="1.2" fill="url(#citalia-dot)" />
  <rect x="22" y="29" width="4.4" height="4.4" rx="1.2" fill="url(#citalia-dot)" />
  <rect x="28" y="29" width="4.4" height="4.4" rx="1.2" fill="url(#citalia-dot)" />
</svg>
